<svg xmlns="http://www.w3.org/2000/svg" x="0px" y="0px" width="100" height="100" viewBox="0 0 32 32">
<path d="M22 6A1 1 0 1022 8 1 1 0 1022 6zM22 3A1 1 0 1022 5 1 1 0 1022 3zM25 3A1 1 0 1025 5 1 1 0 1025 3zM19 0A1 1 0 1019 2 1 1 0 1019 0zM25 9A1 1 0 1025 11 1 1 0 1025 9zM28 9A1 1 0 1028 11 1 1 0 1028 9zM28 12A1 1 0 1028 14 1 1 0 1028 12zM28 15A1 1 0 1028 17 1 1 0 1028 15zM28 6A1 1 0 1028 8 1 1 0 1028 6zM25 6A1 1 0 1025 8 1 1 0 1025 6zM19 3A1 1 0 1019 5 1 1 0 1019 3zM19 6A1 1 0 1019 8 1 1 0 1019 6zM19 9A1 1 0 1019 11 1 1 0 1019 9zM19 12A1 1 0 1019 14 1 1 0 1019 12zM19 15A1 1 0 1019 17 1 1 0 1019 15zM19 18A1 1 0 1019 20 1 1 0 1019 18zM19 21A1 1 0 1019 23 1 1 0 1019 21zM16 21A1 1 0 1016 23 1 1 0 1016 21zM13 21A1 1 0 1013 23 1 1 0 1013 21zM19 24A1 1 0 1019 26 1 1 0 1019 24zM16 24A1 1 0 1016 26 1 1 0 1016 24zM13 24A1 1 0 1013 26 1 1 0 1013 24zM10 24A1 1 0 1010 26 1 1 0 1010 24zM16 27A1 1 0 1016 29 1 1 0 1016 27zM13 27A1 1 0 1013 29 1 1 0 1013 27zM10 21A1 1 0 1010 23 1 1 0 1010 21zM16 18A1 1 0 1016 20 1 1 0 1016 18zM13 18A1 1 0 1013 20 1 1 0 1013 18zM10 18A1 1 0 1010 20 1 1 0 1010 18zM7 21A1 1 0 107 23 1 1 0 107 21zM7 24A1 1 0 107 26 1 1 0 107 24zM10 27A1 1 0 1010 29 1 1 0 1010 27z"></path>
</svg>