<svg xmlns="http://www.w3.org/2000/svg" x="0px" y="0px" width="100" height="100" viewBox="0 0 32 32">
<path d="M 12.462891 2.9921875 C 7.2252655 2.9921875 2.9570313 7.2584727 2.9570312 12.496094 C 2.9570313 17.733715 7.2252655 22.001953 12.462891 22.001953 C 13.551086 22.001953 14.59344 21.809606 15.568359 21.470703 C 15.99358 22.887072 16.692358 24.307595 17.519531 25.537109 C 18.577194 27.109224 19.7277 28.416844 21.224609 28.794922 C 26.102058 30.025875 30.187787 25.499181 28.738281 21.185547 C 28.256532 19.751584 26.978583 18.591015 25.451172 17.566406 C 24.223816 16.743079 22.81752 16.060497 21.423828 15.638672 C 21.771069 14.653136 21.96875 13.598209 21.96875 12.496094 C 21.96875 7.2584726 17.700515 2.9921875 12.462891 2.9921875 z M 12.462891 4.9921875 C 16.619636 4.9921875 19.96875 8.339351 19.96875 12.496094 C 19.96875 15.357898 18.380714 17.836704 16.035156 19.103516 A 1.0001 1.0001 0 0 0 15.617188 19.304688 C 14.657924 19.748285 13.592418 20.001953 12.462891 20.001953 C 8.306145 20.001953 4.9570313 16.652836 4.9570312 12.496094 C 4.9570312 8.339351 8.306145 4.9921875 12.462891 4.9921875 z M 20.542969 17.472656 C 21.786212 17.810526 23.17863 18.450868 24.337891 19.228516 C 25.66373 20.117907 26.6425 21.223229 26.84375 21.822266 C 27.804244 24.680631 25.251442 27.748516 21.712891 26.855469 C 21.264781 26.740933 20.097832 25.784656 19.179688 24.419922 C 18.399212 23.25982 17.748239 21.852135 17.408203 20.595703 C 18.682449 19.814124 19.756598 18.743656 20.542969 17.472656 z"></path>
</svg>